<svg width="36" height="36" viewBox="0 0 36 36" fill="none" xmlns="http://www.w3.org/2000/svg">
<g clip-path="url(#clip0_6_1847)">
<g filter="url(#filter0_d_6_1847)">
<path fill-rule="evenodd" clip-rule="evenodd" d="M18.0002 0.890432C14.2976 0.880433 10.7424 2.3415 8.11657 4.95204C5.49078 7.56258 4.00962 11.1087 3.99805 14.8114C3.99805 25.7161 15.3748 35.1182 18.0002 35.1182C20.6256 35.1182 32 25.7173 32 14.8114C31.9884 11.1091 30.5073 7.56369 27.8821 4.95322C25.2568 2.34275 21.7024 0.881078 18.0002 0.890432ZM17.9166 20.3695C16.8027 20.3631 15.7155 20.0266 14.7924 19.4031C13.8694 18.7795 13.1514 17.8963 12.7296 16.8653C12.3078 15.8343 12.2012 14.7018 12.4225 13.6101C12.6438 12.5183 13.183 11.5162 13.973 10.7308C14.763 9.94538 15.7682 9.4124 16.8612 9.19745C17.9542 8.9825 19.0861 9.09579 20.1146 9.52357C21.1432 9.95134 22.0223 10.6734 22.6405 11.6C23.2587 12.5267 23.5886 13.6168 23.5886 14.7307C23.5864 15.4732 23.4378 16.2075 23.1516 16.8926C22.8654 17.5777 22.4473 18.2001 21.9207 18.7235C21.3941 19.247 20.7694 19.6617 20.0826 19.9438C19.3958 20.2259 18.6603 20.3694 17.9178 20.3672L17.9166 20.3695Z" fill="#16282D"/>
</g>
<path d="M17.8872 20.4121C21.0232 20.4121 23.5654 17.8699 23.5654 14.7339C23.5654 11.5979 21.0232 9.05566 17.8872 9.05566C14.7512 9.05566 12.209 11.5979 12.209 14.7339C12.209 17.8699 14.7512 20.4121 17.8872 20.4121Z" fill="white"/>
</g>
<defs>
<filter id="filter0_d_6_1847" x="1.99805" y="-1.10962" width="32.002" height="38.2278" filterUnits="userSpaceOnUse" color-interpolation-filters="sRGB">
<feFlood flood-opacity="0" result="BackgroundImageFix"/>
<feColorMatrix in="SourceAlpha" type="matrix" values="0 0 0 0 0 0 0 0 0 0 0 0 0 0 0 0 0 0 127 0" result="hardAlpha"/>
<feOffset/>
<feGaussianBlur stdDeviation="1"/>
<feColorMatrix type="matrix" values="0 0 0 0 0 0 0 0 0 0 0 0 0 0 0 0 0 0 0.2 0"/>
<feBlend mode="normal" in2="BackgroundImageFix" result="effect1_dropShadow_6_1847"/>
<feBlend mode="normal" in="SourceGraphic" in2="effect1_dropShadow_6_1847" result="shape"/>
</filter>
<clipPath id="clip0_6_1847">
<rect width="36" height="36" fill="white"/>
</clipPath>
</defs>
</svg>
